/* XPM */
static char *result[] = {
/* columns rows colors chars-per-pixel */
"25 25 52 1 ",
"  c #070401",
". c #0B0602",
"X c #0E0804",
"o c #150600",
"O c #130B05",
"+ c #1A0D05",
"@ c #170E08",
"# c #190F08",
"$ c #1A1007",
"% c #1D1209",
"& c #210E01",
"* c #261001",
"= c #23150B",
"- c #2B1609",
"; c #27180C",
": c #2C1B0D",
"> c #311E0F",
", c #2F1D10",
"< c #311F10",
"1 c #37220F",
"2 c #352211",
"3 c #3A2513",
"4 c #3E2915",
"5 c #422B16",
"6 c #4A2D16",
"7 c #452E18",
"8 c #4A2F18",
"9 c #483017",
"0 c #473019",
"q c #4C321B",
"w c #51361C",
"e c #55391E",
"r c #5A3B1D",
"t c #553B20",
"y c #593D20",
"u c #644221",
"i c #6A4726",
"p c #6C4A28",
"a c #724D2A",
"s c #72502B",
"d c #79522D",
"f c #855C32",
"g c #895D30",
"h c #915F31",
"j c #8F6738",
"k c #956334",
"l c #9B6534",
"z c #9C6937",
"x c #9C6A39",
"c c #A06B3A",
"v c #A07240",
"b c None",
/* pixels */
"bbjggbbbbbbbbbbbbbbbbbbbb",
"aaxlzzxvckcckuipujxklkdps",
"6qeeq66w666wr96214wyuu9qw",
"5954*oooo..+37614414545wr",
"6weq-+ooo#>3qeq5ww4qwwwyy",
"6qwq-&&&+3wqqeq5tw4ttqqty",
"5wwq>&&&-5tqqe65ww0wtqqty",
"4qw0>*&&27w99w65ww4ww94tt",
"48q71-&+26q77q74qq3qq40tw",
"277533>=25745q430020q44qq",
"2455154325734742442403340",
",353<233,342243233,343344",
",232:222:22,242,32;332234",
"=,2,;<2,;,2:,2<:<<;22<<23",
"=;::=,::=,,;;2:;,;%<<,:2<",
"%=,;%;;=%,,=;,;=;;;;,;;,<",
"$===#===%;;%;;=%;=%;:;;::",
"@$=#@%%%@%%%%%%$%%$===%;;",
"O##@O@@@O@#@%%$@%@@%%%%%=",
"XO@OO@OOO@@O@@@XOOO@%$@%$",
"XXOXoOOXXXXXOOXXOXXOOOO@$",
".XXX.XXOXXOXXOXXXXXOOOO@@",
"..X..X...XXXXXX.XX.XXXXOO",
".....X.......X...X.XXXXOX",
"  .. ..  ......  . .XX.XX"
};
