/* XPM */
static char *result[] = {
/* columns rows colors chars-per-pixel */
"25 25 158 2 ",
"   c black",
".  c #010101",
"X  c #020101",
"o  c #020202",
"O  c gray1",
"+  c gray2",
"@  c #060606",
"#  c gray3",
"$  c #0C0B0B",
"%  c #0C0C0C",
"&  c gray8",
"*  c #151515",
"=  c #191918",
"-  c gray11",
";  c gray12",
":  c #231200",
">  c #251A07",
",  c #3B2501",
"<  c gray16",
"1  c gray17",
"2  c gray18",
"3  c gray19",
"4  c #333131",
"5  c #353535",
"6  c #373737",
"7  c #363539",
"8  c #393939",
"9  c #3B3A3A",
"0  c #3E3E3E",
"q  c #442701",
"w  c #4B2A02",
"e  c #553104",
"r  c #583602",
"t  c #5D3E0D",
"y  c #452D10",
"u  c #4A3311",
"i  c #4B331B",
"p  c #673F04",
"a  c #6D3F00",
"s  c #513E2F",
"d  c #745224",
"f  c #74552C",
"g  c #3A3A44",
"h  c #374A72",
"j  c #434343",
"k  c #424244",
"l  c #464545",
"z  c #4F4B48",
"x  c #4D4B4B",
"c  c #574541",
"v  c #524F4F",
"b  c #5A554D",
"n  c #4F5253",
"m  c #4D5256",
"M  c #535252",
"N  c gray33",
"B  c gray34",
"V  c #585454",
"C  c #585858",
"Z  c #725B4A",
"A  c #605B58",
"S  c #71634E",
"D  c #5D6464",
"F  c #686767",
"G  c gray45",
"H  c #7C7172",
"J  c #7C7772",
"K  c #814C03",
"L  c #8E560C",
"P  c #955B0B",
"I  c #87725B",
"U  c #B27554",
"Y  c #8B7765",
"T  c #887B6C",
"R  c #917561",
"E  c #9D7B66",
"W  c #817770",
"Q  c #807B74",
"!  c #8B7E76",
"~  c #8F877C",
"^  c #91867F",
"/  c #998B7D",
"(  c #A68062",
")  c #AF907C",
"_  c #B4937E",
"`  c #344C81",
"'  c #385692",
"]  c #878484",
"[  c #8E8A81",
"{  c #8C8986",
"}  c #8F8C89",
"|  c #948C86",
" . c #948F89",
".. c #8E9595",
"X. c #909996",
"o. c #979897",
"O. c #999998",
"+. c #9F9F9B",
"@. c #A08F82",
"#. c #B99581",
"$. c #B19C8E",
"%. c #A59A92",
"&. c #A09E9E",
"*. c #A7A59A",
"=. c #BBA99C",
"-. c #9A9EA3",
";. c #93ADB3",
":. c #91B1B9",
">. c #A2A4A1",
",. c #A5A6A6",
"<. c #A8A9A8",
"1. c #BCB7AE",
"2. c #A9ACB1",
"3. c #BBBEBE",
"4. c #CEA183",
"5. c #C2A58B",
"6. c #CDA88F",
"7. c #C1A597",
"8. c #C9A993",
"9. c #C3AD9F",
"0. c #E8BF9F",
"q. c #C4B7A8",
"w. c #D5BEA5",
"e. c #D5BEA7",
"r. c #C4C0B7",
"t. c #D4C6B8",
"y. c #E2CEB9",
"u. c #E8D5BE",
"i. c #EFD8BF",
"p. c #94B7C0",
"a. c #B7C1C4",
"s. c #BDD6DD",
"d. c #C5C2C2",
"f. c #C9C8C8",
"g. c #D0CECE",
"h. c #D5D3D3",
"j. c #D8D6D6",
"k. c #DAD8D8",
"l. c #E0D9CE",
"z. c #FFE9CE",
"x. c #E6E0D7",
"c. c #E3E2DE",
"v. c #F5E9DD",
"b. c #F7EDDE",
"n. c #FCEFDC",
"m. c #CDDCE1",
"M. c #D5F2F6",
"N. c #E1EDEF",
"B. c #ECEDEB",
"V. c #EEEEEB",
"C. c #F4F4F1",
"Z. c #F4F4F4",
"A. c azure",
"S. c #FBFBFB",
"D. c gray99",
"F. c #FFFFFD",
"G. c white",
"H. c None",
/* pixels */
"H.H.H.H.H.H.H.H.H.H.H.H.H.H.H.H.H.H.H.H.H.H.H.H.H.",
"H.H.H.H.H.H.H.H.H.H.H.H.H.H.H.H.H.H.H.H.H.H.H.H.H.",
"H.H.H.H.H.H.H.H.H.H.H.H.H.H.H.H.H.H.H.H.H.H.H.H.H.",
"H.H.H.H.H.H.H.H.< 1 * @ # % j C H.H.H.H.H.H.H.H.H.",
"H.H.H.H.H.H.H.+ 3 5 0 8 ; 9 x 6 - H.H.H.H.H.H.H.H.",
"H.H.H.H.H.H.H.  O o - 4 V h.j.v & O H.H.H.H.H.H.H.",
"H.H.H.H.H.H.. + O X $ ] d.D.G.g.F & H.H.H.H.H.H.H.",
"H.H.H.H.H.H.H.2 l z v k.S.G.G.Z.f.B H.H.H.H.H.H.H.",
"H.H.H.H.H.H.H.N  .b = M o.V.c.G A J H.H.H.H.H.H.H.",
"H.H.H.H.H.H.| @.e.! g k c w.$.7 H W H.H.H.H.H.H.H.",
"H.H.H.H.H.H.%.7.u.v.2.m 9.z.t.n &.{ H.H.H.H.H.H.H.",
"H.H.H.H.H.H.H.#.6.i.1.,.C.F.B.<.O.H.H.H.H.H.H.H.H.",
"H.H.H.H.H.H.H.H.H.E 5.y.b.l.x.r.H.H.H.H.H.H.H.H.H.",
"H.H.H.H.H.H.H.H.H.H.D X.*.T Y H.H.H.H.H.H.H.H.H.H.",
"H.H.H.H.H.H.H.H.H.H.p.M.N...H.H.H.H.H.H.H.H.H.H.H.",
"H.H.H.H.H.H.H.H.H.~ :.A.G.3.H.H.H.H.H.H.H.H.H.H.H.",
"H.H.H.H.H.H.H.H.R q.;.s.m.a.Q H.H.H.H.H.H.H.H.H.H.",
"H.H.H.H.H.H.H.: ( n.>.h ` ' -.+.H.H.H.H.H.H.H.H.H.",
"H.H.H.H.H.H.H.H.U 0.I y i s f d e H.H.H.H.H.H.H.H.",
"H.H.H.H.H.H.H.H.H.H.Z S u t a K P L w H.H.H.H.H.H.",
"H.H.H.H.H.H.H.H.H.H.8.^ ) [ > , r p q H.H.H.H.H.H.",
"H.H.H.H.H.H.H.H.H.H.4./ _ =.} H.H.H.H.H.H.H.H.H.H.",
"H.H.H.H.H.H.H.H.H.H.H.H.H.H.H.H.H.H.H.H.H.H.H.H.H.",
"H.H.H.H.H.H.H.H.H.H.H.H.H.H.H.H.H.H.H.H.H.H.H.H.H.",
"H.H.H.H.H.H.H.H.H.H.H.H.H.H.H.H.H.H.H.H.H.H.H.H.H."
};
