/* XPM */
static char *result[] = {
/* columns rows colors chars-per-pixel */
"25 25 188 2 ",
"   c #000100",
".  c #020B02",
"X  c #041503",
"o  c #091703",
"O  c #0A1B04",
"+  c #0D2206",
"@  c #0C2806",
"#  c #022708",
"$  c #0D2E0A",
"%  c #022306",
"&  c #122607",
"*  c #112B07",
"=  c #132E08",
"-  c #1D2C0A",
";  c #04310B",
":  c #043B0B",
">  c #0B3D0C",
",  c #0E340A",
"<  c #143309",
"1  c #1A340A",
"2  c #1D3C0B",
"3  c #143A0B",
"4  c #1D3112",
"5  c #222C0C",
"6  c #233009",
"7  c #2A300D",
"8  c #233C0D",
"9  c #2A3B0D",
"0  c #04420D",
"q  c #09460E",
"w  c #0F4B0F",
"e  c #054A0F",
"r  c #1D440D",
"t  c #1C490E",
"y  c #124B0F",
"u  c #065712",
"i  c #055E13",
"p  c #085A12",
"a  c #125310",
"s  c #155912",
"d  c #24430D",
"f  c #2B420D",
"g  c #244A0E",
"h  c #2A4A0F",
"j  c #34450D",
"k  c #344F0E",
"l  c #26520F",
"z  c #22580E",
"x  c #325A0F",
"c  c #32520D",
"v  c #254411",
"b  c #2C4311",
"n  c #224C11",
"m  c #2C4C11",
"M  c #324610",
"N  c #3A4710",
"B  c #324B12",
"V  c #394A12",
"C  c #2C5312",
"Z  c #225D12",
"A  c #2D5A13",
"S  c #2C561D",
"D  c #345313",
"F  c #3C5315",
"G  c #345C14",
"H  c #3D5C14",
"J  c #3D5A1A",
"K  c #156515",
"L  c #0A7218",
"P  c #077D1A",
"I  c #087F19",
"U  c #1A721A",
"Y  c #266E12",
"T  c #286519",
"R  c #2D6D16",
"E  c #346514",
"W  c #3A6314",
"Q  c #35631B",
"!  c #2F7016",
"~  c #237917",
"^  c #377013",
"/  c #387014",
"(  c #35781A",
")  c #3E7A19",
"_  c #195528",
"`  c #245921",
"'  c #4F5F0B",
"]  c #474B1B",
"[  c #425515",
"{  c #425A14",
"}  c #405618",
"|  c #435C19",
" . c #4D5C18",
".. c #545B19",
"X. c #436015",
"o. c #466B12",
"O. c #42631A",
"+. c #4B651C",
"@. c #456B19",
"#. c #4C6C1B",
"$. c #4B6716",
"%. c #596616",
"&. c #536A12",
"*. c #52641C",
"=. c #5E671D",
"-. c #546C1D",
";. c #596B1E",
":. c #536513",
">. c #4E7415",
",. c #4F7814",
"<. c #547414",
"1. c #55751E",
"2. c #59761F",
"3. c #527F18",
"4. c #5F7B19",
"5. c #616A14",
"6. c #636A1F",
"7. c #607112",
"8. c #6F7C17",
"9. c #67701F",
"0. c #627C1C",
"q. c #687F1A",
"w. c #727D19",
"e. c #486724",
"r. c #517220",
"t. c #5B7320",
"y. c #5F7A20",
"u. c #626F21",
"i. c #637322",
"p. c #6B7623",
"a. c #627A23",
"s. c #6B7A24",
"d. c #717724",
"f. c #727B23",
"g. c #797E28",
"h. c #807A1C",
"j. c #0F881F",
"k. c #0B851D",
"l. c #10831B",
"z. c #09991F",
"x. c #22831A",
"c. c #3C861C",
"v. c #339D1C",
"b. c #108E20",
"n. c #0A9620",
"m. c #139F24",
"M. c #348223",
"N. c #0BA222",
"B. c #47851D",
"V. c #518A1B",
"C. c #59961E",
"Z. c #618317",
"A. c #668119",
"S. c #6C8418",
"D. c #648D1C",
"F. c #6E8C19",
"G. c #77831F",
"H. c #7D8319",
"J. c #7D8A1A",
"K. c #728C1C",
"L. c #4A8728",
"P. c #409621",
"I. c #4D9123",
"U. c #6D8528",
"Y. c #798226",
"T. c #718920",
"R. c #748529",
"E. c #7D8429",
"W. c #789A21",
"Q. c #729F2A",
"!. c #43A224",
"~. c #40A02A",
"^. c #71A023",
"/. c #84831D",
"(. c #8A8B1B",
"). c #8D9A1E",
"_. c #819B1C",
"`. c #98951E",
"'. c #969B1F",
"]. c #9B981F",
"[. c #848E24",
"{. c #80852A",
"}. c #84892B",
"|. c #8F9620",
" X c #858F30",
".X c #889030",
"XX c #A39D21",
"oX c None",
/* pixels */
"oXoXoXoXoXoXoXoXoXoXoXoXoXoXoXoXoXoXoXoXoXoXoXoXoX",
"oXoXoX*.E.g.*.oXoXL.^.W.^.@.3.C.c.M.Q p.d. .M oXoX",
"oXoX*.a.Y.p.[ 9 A M.~.~.!.^ W 0.H C 6.g.=.[ 8 oXoX",
"oXoX| *.f.p.F 2 G Q T R ^ x { :.%.w.Y.;.F g @ oXoX",
"oXoXF | ;.s.J 2 H *.%.$.<.S.`.h./.Y.$.D 2 2 = 1 oX",
"oXoXD J *.p.-.G m [ X.H V.`./.(.w.$.h 8 D h 2 oXoX",
"oXoXoXC t.s.1.a.W h h W _.w.8.D.( g d m @.D 1 oXoX",
"oXoXoXn 1.R.a.#.s.D r <.'.(.V.l.i > t B a.$.h oX7 ",
"oXoXoXoXC s..XU.y.1.G A.].).c.0 X X : v p.p.| oXoX",
"oXoXoXoXt W U. XU.I.B.Z./.D.w .   . % 3 ;.{.i.oXoX",
"oXoXoXoXG O.t.}.R.v.v./ o.~ #     . X @ m p.}.i.oX",
"oXoXoXoXD 1.t.Y.R.t.O.f 1 : .   . . o + = | E.{.J ",
"oXoXoXoX2 H 0.i.p.d.0.g o         o O * $ B ;.E.| ",
"J F oXoXr G -.s.e.J U I e .       X O * * oX*.u.D ",
"F oXoXoXz G @.e._ ` L N.z.i ; ; : u u q < [ ;.[ oX",
"oXoXoX8 C O.C S S %.x.N.n.m.b.j.k.P L L l 6. .8 oX",
"oXoXoXoXG -.G E { ' Y K a s y > 0 $ $ , D ..V - oX",
"oXoXoXoXE r.@.A E G x k 5.5.j j 6 8 8 2 B N j 1 oX",
"oXoXoXoXC r.t.A Z Z Z A.XX/.[ k j 7 1 8 b 9 B d oX",
"oXoXoXoXg >.1.A r t E J.h.] 5 8 f 5 8 D V f 2 oXoX",
"oXoXoXoXg E @.A < v 0.`.H.[ 4 d f - O.e.F 8 = oXoX",
"oXoXoXoX2 l G C = [ [.|.F.>.H k 1 b r.+.D 8 = oXoX",
"oXoXoXoXoXr l r 9 p.[.K.,.<.<.c 8 F -.W h 2 < + oX",
"oXoXoXoXoXoXd F =.f.K.V.o.<.&.&.D  .-.D 8 d < oXoX",
"oXoXoXoXoXoXoXoXoXoXoXoXoXoXoXoXoXoXoXoXoXoXoXoXoX"
};
